<svg width="32" height="32" xmlns="http://www.w3.org/2000/svg">

 <g>
  <title>background</title>
  <rect fill="none" id="canvas_background" height="402" width="582" y="-1" x="-1"/>
 </g>
 <g>
  <title>Layer 1</title>
  <path stroke-miterlimit="10" stroke-linejoin="round" stroke-linecap="round" stroke-width="2" stroke="#ffffff" fill="none" id="svg_2" d="m31,16c0,4.65997 -2.13,8.82996 -5.46997,11.57996c-2.59003,2.14001 -5.91003,3.42004 -9.53003,3.42004s-6.94,-1.28003 -9.53003,-3.42004c-3.33997,-2.75 -5.46997,-6.91999 -5.46997,-11.57996c0,-8.28003 6.71997,-15 15,-15s15,6.71997 15,15z" class="st0"/>
  <path stroke-miterlimit="10" stroke-linejoin="round" stroke-linecap="round" stroke-width="2" stroke="#ffffff" fill="none" id="svg_3" d="m22.5,11.5c0,2.45263 -1.36067,5.40799 -3.38002,7.02865c-0.03465,0.02603 -0.06929,0.052 -0.10399,0.07802c-0.90132,0.702 -1.92397,1.12666 -3.01598,1.12666s-2.11467,-0.42466 -3.01598,-1.12666c-0.0347,-0.02603 -0.06935,-0.052 -0.104,-0.07802c-2.01936,-1.62066 -3.38003,-4.57602 -3.38003,-7.02865c0,-3.58801 2.91199,-6.5 6.5,-6.5s6.5,2.91199 6.5,6.5z" class="st0"/>
  <path stroke-miterlimit="10" stroke-linejoin="round" stroke-linecap="round" stroke-width="2" stroke="#ffffff" fill="none" id="svg_4" d="m25.53003,27.52997l0,0.04999c-2.59003,2.14001 -5.91003,3.42004 -9.53003,3.42004s-6.94,-1.28003 -9.53003,-3.42004l0,-0.04999c0,-4.16998 2.67004,-7.71997 6.41003,-9c0.02997,0.02002 0.07001,0.04999 0.09998,0.08002c0.91003,0.70001 1.92999,1.12 3.02002,1.12s2.10999,-0.41998 3.02002,-1.12c0.02997,-0.03003 0.07001,-0.06 0.09998,-0.08002c3.73999,1.28003 6.41003,4.83002 6.41003,9z" class="st0"/>
 </g>
</svg>